<svg width="20" height="20" viewBox="0 0 20 20" fill="none" xmlns="http://www.w3.org/2000/svg">
<circle cx="10" cy="10" r="10" fill="#0072BC"/>
<path d="M8.73047 14.0352C8.72396 13.8008 8.7207 13.625 8.7207 13.5078C8.7207 12.8177 8.81836 12.222 9.01367 11.7207C9.1569 11.3431 9.38802 10.9622 9.70703 10.5781C9.94141 10.2982 10.3613 9.89128 10.9668 9.35742C11.5788 8.81706 11.9759 8.38737 12.1582 8.06836C12.3405 7.74935 12.4316 7.40104 12.4316 7.02344C12.4316 6.33984 12.1647 5.74089 11.6309 5.22656C11.097 4.70573 10.4427 4.44531 9.66797 4.44531C8.91927 4.44531 8.29427 4.67969 7.79297 5.14844C7.29167 5.61719 6.96289 6.34961 6.80664 7.3457L5 7.13086C5.16276 5.79622 5.64453 4.77409 6.44531 4.06445C7.2526 3.35482 8.31706 3 9.63867 3C11.0384 3 12.1549 3.38086 12.9883 4.14258C13.8216 4.9043 14.2383 5.82552 14.2383 6.90625C14.2383 7.53125 14.0918 8.10742 13.7988 8.63477C13.5059 9.16211 12.9329 9.80339 12.0801 10.5586C11.5072 11.0664 11.1328 11.4408 10.957 11.6816C10.7812 11.9225 10.651 12.1992 10.5664 12.5117C10.4818 12.8242 10.4329 13.332 10.4199 14.0352H8.73047ZM8.62305 17.5605V15.5586H10.625V17.5605H8.62305Z" fill="white"/>
</svg>
