<svg width="24" height="24" viewBox="0 0 24 24" fill="none" xmlns="http://www.w3.org/2000/svg">
<circle cx="11.5" cy="11.5" r="9.8" stroke="#0072BC" stroke-width="1.4"/>
<path d="M10.2012 12.5498V13.5342H14.2139V14.4775H10.2012V17H8.875V14.4775H8.19141V13.5342H8.875V12.5498H8.19141V11.4014H8.875V6.97852H12.0127C12.9105 6.97852 13.5895 7.06966 14.0498 7.25195C14.5146 7.42969 14.8861 7.74642 15.1641 8.20215C15.4421 8.65788 15.5811 9.16146 15.5811 9.71289C15.5811 10.2689 15.4785 10.7292 15.2734 11.0938C15.0684 11.4583 14.7949 11.75 14.4531 11.9688C14.1159 12.1829 13.7262 12.3333 13.2842 12.4199C12.8467 12.5065 12.3932 12.5498 11.9238 12.5498H10.2012ZM11.9238 11.4014C12.2292 11.4014 12.5208 11.3786 12.7988 11.333C13.0768 11.2829 13.3206 11.194 13.5303 11.0664C13.7399 10.9388 13.9062 10.7679 14.0293 10.5537C14.1523 10.335 14.2139 10.0547 14.2139 9.71289C14.2139 9.41667 14.1569 9.16602 14.043 8.96094C13.9336 8.75586 13.7809 8.58952 13.585 8.46191C13.3936 8.32975 13.168 8.23405 12.9082 8.1748C12.6484 8.11556 12.3682 8.08594 12.0674 8.08594H10.2012V11.4014H11.9238Z" fill="#0072BC"/>
</svg>
